<svg id="svg2" xmlns="http://www.w3.org/2000/svg" xmlns:xlink="http://www.w3.org/1999/xlink" viewBox="0 0 496.15 117.77"><defs><style>.cls-1{fill:none;}.cls-2{clip-path:url(#clip-path);}.cls-3{fill:#d8038d;}</style><clipPath id="clip-path" transform="translate(-7.4 -5.53)"><rect class="cls-1" x="-319.41" y="-333.28" width="1122.52" height="793.7"/></clipPath></defs><title>branding-image-cropped</title><g id="g10"><g id="g12"><g class="cls-2"><g id="g14"><g id="g20"><path id="path22" class="cls-3" d="M494.8,39.64h.32c1.2,0,1.8-.48,1.8-1.22,0-1.1-1.15-1.17-1.75-1.17h-.37Zm2.67,4.77L494.8,41v3.41h-1.64V35.8h2.28c2.75,0,3.09,1.75,3.09,2.58a2.42,2.42,0,0,1-1.91,2.44l2.86,3.59Zm-1.89-11a6.61,6.61,0,0,0-6.68,6.84,6.68,6.68,0,1,0,13.36,0,6.6,6.6,0,0,0-6.68-6.84m0-1.15a7.75,7.75,0,0,1,8,8,8,8,0,1,1-15.94,0,7.76,7.76,0,0,1,8-8" transform="translate(-7.4 -5.53)"/></g><g id="g24"><path id="path26" class="cls-3" d="M98.4,5.53A59,59,0,0,0,42.57,45.75h29.6a32.22,32.22,0,1,1,0,37.33H42.57A58.88,58.88,0,1,0,98.4,5.53" transform="translate(-7.4 -5.53)"/></g><g id="g28"><path id="path30" class="cls-3" d="M98.17,77.74H7.4l3.28-26.66h90.76Z" transform="translate(-7.4 -5.53)"/></g><g id="g32"><path id="path34" class="cls-3" d="M204.56,46.38l-6.27,50.16H182.08l6.17-50.16H174.56l1.74-14.17H220l-1.74,14.17Z" transform="translate(-7.4 -5.53)"/></g><g id="g36"><path id="path38" class="cls-3" d="M272.76,63c-.58-10.12-7.43-16.59-17.55-16.59-11,0-19,7.72-19,18.33s7.23,17.65,18,17.65c11,0,18.62-7.42,18.62-18.23a4.59,4.59,0,0,0-.1-1.16m16.79-1.83V62.4c0,21.12-14.09,35.39-34.92,35.39s-35.11-13.11-35.11-32.5c0-20.16,15-34.34,36.36-34.34,19.49,0,32.89,12,33.67,30.19" transform="translate(-7.4 -5.53)"/></g><g id="g40"><path id="path42" class="cls-3" d="M322.67,46.38,316.4,96.54H300.2l6.17-50.16h-13.7l1.74-14.17H338.1l-1.74,14.17Z" transform="translate(-7.4 -5.53)"/></g><g id="g44"><path id="path46" class="cls-3" d="M401,32.21l-4.54,37.23c-1.54,12.34-3.18,17.26-7.33,21.22-4.82,4.63-12.54,7.13-22,7.13-16.68,0-26.81-8.19-26.81-22a84.52,84.52,0,0,1,.77-8.87l4.24-34.72h16.21l-4.25,34.72c-.19,1.93-.29,3.76-.29,5.4,0,6.75,3.48,10,10.61,10,4.06,0,7.24-1.06,9.17-3.18,2-2.32,2.7-4.54,3.47-10.32l4.44-36.65Z" transform="translate(-7.4 -5.53)"/></g><g id="g48"><path id="path50" class="cls-3" d="M478.68,32.21l2,64.33h-16.3l-.77-28.84v-2A77,77,0,0,1,464.41,55a107.73,107.73,0,0,1-4.54,10.61l-15.81,31h-8.59L430,71.66a129.77,129.77,0,0,1-2.7-17.75c-1.54,7.91-2.31,11-3.37,14.75l-8.3,27.88H398.82l20.35-64.33h16.11l4.82,21.7A159,159,0,0,1,443,70.79,79.28,79.28,0,0,1,446.66,62l15.14-29.8Z" transform="translate(-7.4 -5.53)"/></g></g></g></g></g></svg>